<svg width="61" height="39" viewBox="0 0 61 39" xmlns="http://www.w3.org/2000/svg"><title>Artboard</title><g fill="none" fill-rule="evenodd"><path d="M57.834 9.154A5.923 5.923 0 0 0 55.63 7.64c-.021-.009-.04-.023-.061-.031L39.573 1.277a6.572 6.572 0 0 0-.474-.163 7.219 7.219 0 0 0-.507-.125l-.04-.01a4.143 4.143 0 0 0-.223-.047 6.875 6.875 0 0 0-.487-.065 2.745 2.745 0 0 0-.268-.028 7.326 7.326 0 0 0-.689-.014L8.91 1.6a7.61 7.61 0 0 0-.587.042l-.159.019a7.56 7.56 0 0 0-1.154.24 7.717 7.717 0 0 0-.6.198l-.03.01a7.658 7.658 0 0 0-1.049.5 7.84 7.84 0 0 0-.618.39 7.45 7.45 0 0 0-.556.43 1.963 1.963 0 0 0-.235.211 5.496 5.496 0 0 0-.161.16l-.04.04-.037.037a4.243 4.243 0 0 0-.15.15 2.222 2.222 0 0 0-.183.2 6.96 6.96 0 0 0-.426.55 2.1 2.1 0 0 0-.08.111c-.043.064-.081.127-.119.19l-.034.056a4.686 4.686 0 0 0-.29.531 3.777 3.777 0 0 0-.087.179 6.154 6.154 0 0 0-.486 1.8c-.007.06-.01.12-.01.182l-.015 3.834a5.355 5.355 0 0 0 1.737 4.435c.334.307.705.573 1.106.798a.315.315 0 0 0 .412.209c.126.058.253.114.384.165l16.386 6.331.003-.008a6.839 6.839 0 0 0 2.672.455l5.074-.142 1.846-.052 20.669-.58c3.63-.101 6.74-2.756 7.08-6.044a1.8 1.8 0 0 0 .01-.182l.015-3.834a5.315 5.315 0 0 0-1.363-4.057z" fill="#FFF"/><g fill="#E7424F"><path d="M59.455 8.96a6.273 6.273 0 0 0-2.335-1.604c-.022-.01-.041-.024-.064-.033L40.11.615a6.925 6.925 0 0 0-.502-.173 7.782 7.782 0 0 0-.537-.133L39.03.3a4.494 4.494 0 0 0-.236-.05 7.18 7.18 0 0 0-.516-.069 2.88 2.88 0 0 0-.284-.03 7.803 7.803 0 0 0-.73-.014L7.63.957a7.943 7.943 0 0 0-.622.044l-.168.02a8.112 8.112 0 0 0-1.86.465l-.03.01a8.162 8.162 0 0 0-1.111.529 8.26 8.26 0 0 0-.655.413 7.94 7.94 0 0 0-.589.457 2.091 2.091 0 0 0-.25.223 5.784 5.784 0 0 0-.17.17l-.043.043-.038.038a5.079 5.079 0 0 0-.16.159 2.382 2.382 0 0 0-.193.212c-.16.186-.31.38-.451.583-.03.038-.059.078-.085.117a4.279 4.279 0 0 0-.125.201l-.037.06a4.78 4.78 0 0 0-.306.562 3.886 3.886 0 0 0-.093.19 6.474 6.474 0 0 0-.515 1.906 1.93 1.93 0 0 0-.01.193L.1 11.613a5.672 5.672 0 0 0 1.84 4.698c.355.325 1.028.84 2.016 1.241l17.356 6.708.004-.01a7.245 7.245 0 0 0 2.83.483l5.375-.151 1.956-.055 21.894-.615c3.846-.107 7.14-2.919 7.5-6.402.006-.064.01-.128.01-.193l.016-4.062a5.628 5.628 0 0 0-1.443-4.296zM4.341 4.015L4.36 4c.118-.08.24-.158.365-.231l.062-.034c.1-.057.2-.114.304-.165.013-.007.027-.012.04-.018.17-.083.342-.16.519-.229l.007-.002c.175-.067.354-.125.535-.177l.044-.014c.126-.035.254-.065.383-.091.027-.006.055-.01.082-.015a6.1 6.1 0 0 1 .512-.077c.156-.017.312-.03.47-.034l29.634-.821a5.885 5.885 0 0 1 .574.013h.018c.05.004.096.014.144.02.134.013.267.028.397.05.07.013.136.03.204.045.11.025.22.049.327.08.02.005.042.009.062.015.119.036.235.076.348.12L50.773 6.94l-25.79.725a8.142 8.142 0 0 0-5.363 2.219L4.1 4.202c.081-.062.157-.128.24-.186zm13.131 10.576l-.015 3.729c-.073.863.05 1.703.342 2.483l-3.71-1.434a.334.334 0 0 0-.62-.24l-4.043-1.562v-.05a.334.334 0 0 0-.589-.177l-4.096-1.583a.333.333 0 0 0-.49-.213 4.382 4.382 0 0 1-.79-.507.334.334 0 0 0-.477-.453 3.685 3.685 0 0 1-.927-2.876l.016-4.149a4.13 4.13 0 0 1 .066-.412c.008-.039.018-.077.027-.116.025-.105.054-.208.086-.31.011-.034.02-.068.032-.1.042-.124.089-.245.141-.364l.011-.021.015-.031a.332.332 0 0 0 .073-.146c.036-.074.074-.147.115-.22l.044-.072 2.628.962v.032a.334.334 0 0 0 .584.182L9.987 8.44c0 .014-.002.028 0 .042a.334.334 0 0 0 .59.175l4.085 1.495a.334.334 0 0 0 .597.218l3.077 1.127a6.418 6.418 0 0 0-.852 2.568l-.003.036a.333.333 0 0 0-.009.49zM59.13 13.18l-.015 4.13c-.267 2.593-2.864 4.752-5.793 4.833l-29.392.824c-1.483 0-2.838-.56-3.717-1.535a3.884 3.884 0 0 1-.987-3.036l.015-4.13c.267-2.593 2.865-4.753 5.793-4.835l29.392-.822h.001c1.483 0 2.837.559 3.716 1.534a3.888 3.888 0 0 1 .987 3.037z"/><path d="M36.82 17.132c-2.752-.667-8.257-2.468-14.847-2.69-.379-.013-1.055.152-1.052.812.007 1.315.034 3.562-.003 3.574.014.498 0 1.346.741 1.687 3.729 1.718 10.44-2.115 15.133-3.075.316-.065.422-.212.028-.308z"/><path d="M21.843 13.836c7.893.076 13.448 2.583 17.521 3.095 4.657.585 9.484-2.067 10.656-2.922.282-.205.242-.273-.054-.255-7.953.487-10.37.023-14.171-3.022-.255-.204-.792-.182-1.061-.19-2.23-.06-9.334.253-9.334.253-3.914.248-4.439 2.707-4.277 2.922.114.151.609.118.72.119z"/><path d="M57.308 13.808c-2.176-.12-5.977.047-7.833 1.134-6.524 3.82-8.05 1.514-16.906 4.331-3.277 1.043-4.353 1.563-3.41 1.734 1.826.33 8.428-.207 13.424-1.174 5.783-1.12 8.798.42 13.978-1.322.995-.334 1.175-1.383 1.177-1.752l.013-2.544c.001-.314-.356-.403-.443-.407zm-20.027-2.88c4.454 3.892 11.225 2.046 20.455 1.676-.002-.333-.002-.226.003-.363l-.007-.169a2.498 2.498 0 0 0-.53-.937c-.616-.686-1.595-1.081-2.687-1.084l-.129.002s-12.642.48-16.909.45c-.117 0-.758-.066-.196.425z"/><ellipse cx="17.456" cy="12.136" rx=".334" ry=".334"/><path d="M14.048 11.731a.334.334 0 1 0-.37-.295h.001c.02.184.186.316.37.295zm1.845-.542a.327.327 0 0 0 .124.224.334.334 0 0 0 .54-.298.334.334 0 1 0-.664.074z"/><ellipse cx="12.781" cy="10.415" rx=".334" ry=".334"/><path d="M16.756 15.915a.333.333 0 1 0-.238-.598l-.015.011a.336.336 0 0 0-.057.065.335.335 0 0 0-.059.227.336.336 0 0 0 .37.295z"/><ellipse cx="14.258" cy="13.614" rx=".334" ry=".334"/><path d="M16.37 13.05a.335.335 0 1 0 .206.635.335.335 0 0 0-.207-.636z"/><ellipse cx="15.489" cy="14.599" rx=".334" ry=".334"/><ellipse cx="13.274" cy="14.846" rx=".334" ry=".334"/><ellipse cx="15.242" cy="12.383" rx=".334" ry=".334"/><ellipse cx="13.028" cy="12.63" rx=".334" ry=".334"/><path d="M17.11 19.696a.335.335 0 1 0 .207.636.335.335 0 0 0-.207-.636z"/><ellipse cx="14.752" cy="18.045" rx=".334" ry=".334"/><path d="M17.298 17.761a.334.334 0 1 0-.664.074.334.334 0 0 0 .664-.074z"/><ellipse cx="15.983" cy="19.03" rx=".334" ry=".334"/><ellipse cx="15.736" cy="16.814" rx=".334" ry=".334"/><ellipse cx="13.521" cy="17.061" rx=".334" ry=".334"/><path d="M14.837 15.793a.334.334 0 1 0-.664.074.334.334 0 1 0 .664-.074z"/><ellipse cx="9.336" cy="9.678" rx=".334" ry=".334"/><path d="M11.295 9.647a.34.34 0 0 0 .292.116.334.334 0 1 0-.292-.116z"/><ellipse cx="10.566" cy="10.662" rx=".334" ry=".334"/><ellipse cx="8.352" cy="10.909" rx=".334" ry=".334"/><ellipse cx="8.105" cy="8.693" rx=".334" ry=".334"/><ellipse cx="9.83" cy="14.109" rx=".334" ry=".334"/><path d="M12.08 14.194a.334.334 0 1 0-.073-.664.334.334 0 0 0 .074.664z"/><ellipse cx="11.06" cy="15.093" rx=".334" ry=".334"/><ellipse cx="8.846" cy="15.34" rx=".334" ry=".334"/><ellipse cx="10.813" cy="12.877" rx=".334" ry=".334"/><ellipse cx="8.599" cy="13.124" rx=".334" ry=".334"/><path d="M9.915 11.856a.334.334 0 1 0-.664.074.334.334 0 1 0 .664-.074zm1.562-.305a.335.335 0 1 0 .653.058.334.334 0 0 0-.653-.058zm1.27 6.48a.334.334 0 1 0-.418.521.334.334 0 0 0 .417-.52z"/><ellipse cx="11.307" cy="17.308" rx=".334" ry=".334"/><path d="M10.04 15.992a.334.334 0 1 0 .37.295h-.001a.334.334 0 0 0-.37-.295zm2.288.417a.327.327 0 0 0 .224-.123.334.334 0 0 0 .071-.246.334.334 0 0 0-.664.074.33.33 0 0 0 .123.224.333.333 0 0 0 .246.071zm-8-8.416a.334.334 0 1 0 .665-.074.334.334 0 1 0-.665.074zm2.516.05a.334.334 0 0 0 .363-.37.334.334 0 1 0-.664.073.332.332 0 0 0 .3.296z"/><ellipse cx="3.43" cy="6.972" rx=".334" ry=".334"/><ellipse cx="4.907" cy="10.172" rx=".334" ry=".334"/><path d="M7.018 9.607a.334.334 0 1 0 .207.636.334.334 0 0 0-.207-.636z"/><ellipse cx="6.138" cy="11.156" rx=".334" ry=".334"/><ellipse cx="3.924" cy="11.403" rx=".334" ry=".334"/><ellipse cx="5.891" cy="8.94" rx=".334" ry=".334"/><ellipse cx="3.677" cy="9.187" rx=".334" ry=".334"/><ellipse cx="2.693" cy="10.419" rx=".334" ry=".334"/><path d="M2.778 8.166a.333.333 0 0 0-.435-.28.335.335 0 0 0-.23.354.334.334 0 1 0 .665-.074z"/><ellipse cx="5.401" cy="14.603" rx=".334" ry=".334"/><path d="M7.652 14.688a.327.327 0 0 0 .224-.123.334.334 0 1 0-.224.123z"/><ellipse cx="6.632" cy="15.587" rx=".334" ry=".334"/><ellipse cx="6.385" cy="13.371" rx=".334" ry=".334"/><ellipse cx="4.171" cy="13.619" rx=".334" ry=".334"/><path d="M5.486 12.35a.334.334 0 0 0-.664.074.334.334 0 1 0 .664-.074zm2.215-.247a.334.334 0 1 0-.665.074.334.334 0 1 0 .665-.074zm.493 4.431a.334.334 0 0 0-.664.074.332.332 0 0 0 .37.295.334.334 0 0 0 .294-.369zm-4.922-3.937a.334.334 0 1 0-.664.074.33.33 0 0 0 .123.225.334.334 0 0 0 .541-.299z"/></g><path d="M51.38 37.138a.733.733 0 0 1-.655-.404l-3.24-6.448-3.687 3.932a.733.733 0 0 1-1.268-.505l.072-15.833a.734.734 0 0 1 1.176-.581l12.532 9.494a.734.734 0 0 1-.36 1.314l-5.354.615 3.24 6.447a.734.734 0 0 1-.326.985l-1.8.906a.736.736 0 0 1-.33.078z" fill="#FFF"/><path d="M43.335 17.883l12.532 9.495-6.397.735 3.71 7.386-1.8.906-3.71-7.387-4.407 4.698.072-15.833zm0-1.467a1.467 1.467 0 0 0-1.466 1.46l-.073 15.835a1.467 1.467 0 0 0 2.536 1.01l2.969-3.166 2.768 5.51a1.467 1.467 0 0 0 1.969.652l1.8-.907a1.468 1.468 0 0 0 .652-1.97l-2.768-5.508 4.312-.496a1.466 1.466 0 0 0 .717-2.627L44.22 16.714a1.467 1.467 0 0 0-.885-.298z" fill="#E7424F"/></g></svg>